<svg xmlns="http://www.w3.org/2000/svg" viewBox="2990 1402 64 55.412"><defs><style>.cls-1{fill:#2a3052}</style></defs><g id="noun_831852_cc" transform="translate(2989 1394.42)"><path id="Path_2614" data-name="Path 2614" class="cls-1" d="M43.072 41.886a1.959 1.959 0 0 0 1.613-1.92v-2.142a1.959 1.959 0 0 0-1.613-1.887l-2.279-.4a10.717 10.717 0 0 0-2.156-3.737l.8-2.175a1.959 1.959 0 0 0-.856-2.351l-1.861-1.136a1.959 1.959 0 0 0-2.469.438l-1.482 1.77a10.828 10.828 0 0 0-4.317 0l-1.482-1.77a1.959 1.959 0 0 0-2.456-.438l-1.864 1.074a1.959 1.959 0 0 0-.856 2.351l.758 2.214a10.73 10.73 0 0 0-2.152 3.735l-2.253.425a1.959 1.959 0 0 0-1.613 1.92v2.149a1.959 1.959 0 0 0 1.613 1.92l2.279.4a10.724 10.724 0 0 0 2.129 3.7l-.8 2.175a1.959 1.959 0 0 0 .856 2.351l1.9 1.065a1.959 1.959 0 0 0 2.469-.438l1.45-1.757a10.828 10.828 0 0 0 4.317 0l1.482 1.77a1.959 1.959 0 0 0 2.469.438l1.861-1.071a1.959 1.959 0 0 0 .856-2.351l-.8-2.175a10.717 10.717 0 0 0 2.155-3.736zm-12.461 1.078a4.062 4.062 0 1 1 4.062-4.064 4.062 4.062 0 0 1-4.062 4.064zM6.734 61.368h41.66L45.7 55.026H7.341V22.771H53.9v19.592l6.341 2.691v-31.74a5.741 5.741 0 0 0-5.734-5.734H6.734A5.741 5.741 0 0 0 1 13.314v42.32a5.741 5.741 0 0 0 5.734 5.734zm17.066-48.1a2.4 2.4 0 1 1-1.7.711 2.4 2.4 0 0 1 1.7-.711zm-7.119 0a2.391 2.391 0 1 1-.007 0zm-7.119 0a2.4 2.4 0 1 1-1.7.711 2.4 2.4 0 0 1 1.7-.711zM64.3 58.893a2.4 2.4 0 0 1-3.4 3.4l-3.03-3.037-1.809 1.809a2.083 2.083 0 0 1-3.4-.653l-5.142-12.145a2.064 2.064 0 0 1 .176-1.959 2.09 2.09 0 0 1 2.612-.784l12.083 5.133a2.083 2.083 0 0 1 .653 3.4l-1.776 1.8z"/></g></svg>