<svg xmlns="http://www.w3.org/2000/svg" viewBox="3339.5 1672 64 59.493"><defs><style>.cls-1{fill:#2a3052}</style></defs><g id="Group_2" data-name="Group 2" transform="translate(3139 331)"><g id="noun_1129075_cc" transform="translate(200.5 1341)"><g id="Group_1" data-name="Group 1"><path id="Path_2611" data-name="Path 2611" class="cls-1" d="M78.5 22.908a5.424 5.424 0 0 0-5.408-5.408H34.331a5.424 5.424 0 0 0-5.408 5.408v21.634h-5.409a9.041 9.041 0 0 0-9.014 9.014v14.423a9.041 9.041 0 0 0 9.014 9.014h44.169A10.849 10.849 0 0 0 78.5 66.176zM28.923 67.979a5.408 5.408 0 1 1-10.817 0V53.556a5.424 5.424 0 0 1 5.408-5.408h5.408zm11.718-34.254h19.831v3.606H40.641zm19.831 27.944H40.641v-3.606h19.831zm6.31-11.718H40.641v-3.606h26.141z" transform="translate(-14.5 -17.5)"/></g></g></g></svg>