<svg xmlns="http://www.w3.org/2000/svg" viewBox="2113 349 60 60"><defs><style>.cls-1{fill:#fff}.cls-2{fill:#2a3152}</style></defs><g id="group-3" transform="translate(1974.03 119.925)"><path id="path" class="cls-1" d="M-53.857-18.662a30.048 30.048 0 0 0-42.417 0 30.147 30.147 0 0 0 0 42.475 30.047 30.047 0 0 0 42.417 0 29.949 29.949 0 0 0 0-42.475z" transform="translate(243.995 256.5)"/><path id="path-2" data-name="path" class="cls-2" d="M-85.2 7.2a5.275 5.275 0 0 0 2.508 3.712l-.545-1.092c0 .111 1.09-2.837-1.963-2.62z" transform="translate(245.788 259.681)"/><path id="path-3" data-name="path" class="cls-2" d="M-55.458-17.411a27.746 27.746 0 0 0-39.364 0 27.838 27.838 0 0 0 0 39.418 27.746 27.746 0 0 0 39.364 0 28.037 28.037 0 0 0 0-39.418zM-58.4 19.168a6.585 6.585 0 0 0-.872.874c-6.652 5.46-11.886 2.73-11.886 2.73-3.489-.764-5.234-.764-6.215-1.419a2.285 2.285 0 0 0-1.2-.437A2.143 2.143 0 0 1-81.3 20.7c-.109-.109-.218-.109-.218-.218a1.807 1.807 0 0 1-.327-2.621c.218-.218-.218-.983-.218-.983s-1.308-1.965-2.181-3.167a9.659 9.659 0 0 1-1.09-3.931 7.54 7.54 0 0 1-1.418-2.184 6 6 0 0 0-.763-.983 1.09 1.09 0 0 1-.436-.546v-.22a5.335 5.335 0 0 1 1.527-1.965c.324-.219 1.634-.982 1.634-.982a2.893 2.893 0 0 1 2.072-1.2 9.782 9.782 0 0 1 3.925.546l.872.218a31 31 0 0 1 3.6 1.419 11.616 11.616 0 0 0 2.072.764c1.745.437 4.8-.983 5.452-1.529 1.09-.983 1.527-1.638 1.527-2.184a1.349 1.349 0 0 0-.438-.874 3.589 3.589 0 0 0-.654-.66l-.109-.1c-2.944-3.167-2.4-5.132-2.4-5.132a4.1 4.1 0 0 0-1.529-3.28l-.218-.109-.109-.109a34.289 34.289 0 0 0 4.58.983 13.178 13.178 0 0 0 2.072.109c1.527 0 2.726-.218 2.835-.546a17.182 17.182 0 0 1-4.035-1.2c-1.527-.546-1.745-.655-2.726-.983a178.69 178.69 0 0 1-2.617-.983c5.343 1.419 7.088 1.965 9.487 1.965a5.4 5.4 0 0 0 1.854-.218c.327-.109 1.418-.328 1.527-.655a8.746 8.746 0 0 1-2.944-.437c-6.215-2.075-6.761-3.057-10.141-4.368a20.89 20.89 0 0 0-5.232-1.637 10.289 10.289 0 0 0-4.471 0c-4.689-1.092-5.779-.983-7.088-.655a23.889 23.889 0 0 1 29.66 3.165 29.388 29.388 0 0 1 2.944 3.49l.109.218c5.779 9.722 4.58 22.282-3.487 30.25zM-73.995-7.693a5.625 5.625 0 0 1 3.053 3.276c-2.944.655-2.4-2.4-2.4-2.4z" transform="translate(244.179 256.668)"/></g></svg>