<svg width="202" height="55" viewBox="0 0 202 55" xmlns="http://www.w3.org/2000/svg" xmlns:xlink="http://www.w3.org/1999/xlink"><title>Artboard</title><defs><path id="a" d="M0 36h132V0H0z"/></defs><g fill="none" fill-rule="evenodd"><path d="M46.257 8.64C35.689-1.94 18.497-1.94 7.926 8.637c-10.568 10.574-10.568 27.783 0 38.358 10.57 10.58 27.769 10.577 38.33-.002 10.582-10.573 10.582-27.782 0-38.352" fill="#FEFEFE"/><path d="M19.539 34.93s.31 2.325 2.268 3.404l-.521-.972s.997-2.618-1.747-2.432" fill="#293052"/><path d="M28.196 18.753c2.105.75 2.782 2.994 2.782 2.994-2.678.61-2.114-2.124-2.114-2.124l-.668-.87zM42.285 43.02c-.275.268-.545.53-.822.782-6.046 4.93-10.702 2.477-10.756 2.477-3.156-.63-4.722-.64-5.608-1.232-.223-.15-.937-.533-1.101-.44-.644.383-1.53.58-2.442-.145a3.447 3.447 0 0 1-.227-.207c-1.005-1.002-.664-2.035-.33-2.395.231-.234-.177-.896-.177-.896s-1.185-1.76-1.994-2.82c-.892-1.164-1.013-3.472-1.024-3.503l-.012-.033c-.9-1.07-.994-1.4-1.305-1.921-.182-.31-.461-.598-.698-.847a4.411 4.411 0 0 1-.42-.461c-.023-.03-.03-.076-.02-.147.083-.5 1.156-1.602 1.388-1.756.285-.184 1.509-.928 1.509-.928s.688-1.083 1.86-1.083c1.057.007 1.701-.058 3.524.536l.758.24c1.27.408 2.39.888 3.28 1.273.755.325 1.36.588 1.823.71 1.572.414 4.345-.86 4.93-1.396.96-.873 1.374-1.459 1.38-1.938.007-.27-.112-.505-.384-.79-.142-.13-.324-.373-.552-.604-.037-.036-.075-.08-.121-.112-2.661-2.827-2.2-4.6-2.198-4.629.114-1.272-.615-2.088-1.398-2.935l-.128-.158a1.11 1.11 0 0 1-.09-.103c1.132.185 1.904.641 4.117.888 1.257.136.86.124 1.865.1 1.383-.045 2.48-.166 2.554-.48-.134-.115-.746.033-3.684-1.09-1.36-.522-1.576-.599-2.44-.886a35.812 35.812 0 0 1-2.317-.894c4.793 1.258 6.361 1.751 8.554 1.782a6.898 6.898 0 0 0 1.65-.148c.31-.056 1.278-.276 1.388-.61.033-.059-.928.157-2.707-.43-5.595-1.85-6.07-2.775-9.172-3.982-1.082-.42-1.434-.65-4.7-1.495-1.498-.385-3.762-.163-4.07.03-4.24-.998-5.204-.89-6.449-.62 8.298-5.324 19.505-4.365 26.766 2.898a21.947 21.947 0 0 1 2.619 3.173l.102.154c2.329 3.488 3.573 7.583 3.573 11.87 0 5.741-2.237 11.136-6.294 15.2zm2.601-33.007C35.071.19 19.112.19 9.3 10.01c-9.812 9.819-9.812 25.796 0 35.616 9.813 9.82 25.777 9.817 35.587-.002 9.825-9.818 9.825-25.795 0-35.611z" fill="#293052"/><g transform="translate(70 10)"><path d="M30.197 5c1.52 0 2.716.495 3.55 1.467.83.963 1.253 2.268 1.253 3.875V19h-3.505v-7.74c0-.951-.216-1.686-.637-2.183-.417-.495-1.001-.734-1.787-.734-.772 0-1.381.25-1.856.767-.473.514-.713 1.254-.713 2.2V19H23V5.274h3.502v1.497c.067-.08.135-.159.204-.232a4.662 4.662 0 0 1 2.068-1.336c.418-.135.9-.203 1.423-.203zm12.385 11.199c-.628 0-1.16-.15-1.581-.443-.39-.274-.58-.663-.58-1.188v-.05c0-.529.21-.934.642-1.24.461-.325 1.124-.489 1.971-.489a7.789 7.789 0 0 1 2.614.428v.54c0 .363-.072.696-.215.986-.15.296-.364.555-.627.766-.28.215-.607.386-.983.509-.378.12-.796.18-1.24.18M43.18 5c-1.058 0-1.974.1-2.723.302a13.46 13.46 0 0 0-2.194.802l-.23.11.963 2.912.274-.117a12.595 12.595 0 0 1 1.657-.577 7.334 7.334 0 0 1 1.845-.212c.926 0 1.642.215 2.123.644.449.397.68.956.703 1.71a12.026 12.026 0 0 0-1.216-.291c-.546-.1-1.216-.151-1.995-.151-.751 0-1.464.088-2.111.267a4.856 4.856 0 0 0-1.721.834 3.94 3.94 0 0 0-1.145 1.426c-.272.571-.41 1.245-.41 2.004v.05c0 .696.134 1.324.4 1.86a3.96 3.96 0 0 0 1.052 1.346c.43.355.941.63 1.513.811a5.99 5.99 0 0 0 1.805.27c.996 0 1.857-.192 2.563-.572a6.05 6.05 0 0 0 1.244-.879v1.18H49v-7.967c0-1.805-.484-3.233-1.443-4.24C46.6 5.511 45.129 5 43.18 5m25.008 9.324L64.748 5H61l5.464 13.595c-.21.478-.426.81-.646.981-.228.182-.512.27-.875.27a2.69 2.69 0 0 1-.802-.126 4.612 4.612 0 0 1-.791-.346l-.264-.145-1.227 2.802.231.128c.463.262.954.467 1.452.617A6.139 6.139 0 0 0 65.26 23c.541 0 1.037-.072 1.47-.213a3.667 3.667 0 0 0 1.214-.697c.36-.315.693-.723.983-1.22a11.95 11.95 0 0 0 .823-1.786L75 5.001h-3.671l-3.14 9.323z" fill="#FEFEFE"/><path d="M91.557 14.345a6.906 6.906 0 0 1-1.484 1.113c-.494.275-1.085.416-1.753.416a3.59 3.59 0 0 1-1.485-.303 3.688 3.688 0 0 1-1.163-.824 3.686 3.686 0 0 1-.76-1.225 4.265 4.265 0 0 1-.268-1.51v-.05c0-.515.088-1.014.267-1.486.18-.47.43-.878.74-1.215a3.58 3.58 0 0 1 1.114-.812c.426-.198.899-.3 1.404-.3.716 0 1.32.138 1.8.411.504.286.98.662 1.433 1.112l.215.214 2.274-2.382-.18-.191a7.684 7.684 0 0 0-2.257-1.673C90.588 5.216 89.49 5 88.197 5a7.37 7.37 0 0 0-2.868.559 7.243 7.243 0 0 0-2.285 1.513A6.965 6.965 0 0 0 81 12.012v.05c0 .942.185 1.847.54 2.693a6.806 6.806 0 0 0 1.504 2.212 7.25 7.25 0 0 0 2.274 1.485 7.36 7.36 0 0 0 2.853.548c1.333 0 2.454-.239 3.331-.705a8.633 8.633 0 0 0 2.311-1.805l.187-.2-2.241-2.14-.202.195zm10.453 1.532c-.51 0-.986-.102-1.415-.304a3.567 3.567 0 0 1-1.123-.837 4.04 4.04 0 0 1-1.006-2.723v-.05c0-.518.082-1.018.245-1.49a3.5 3.5 0 0 1 .702-1.206 3.475 3.475 0 0 1 1.112-.814 3.345 3.345 0 0 1 1.437-.303c.53 0 1.015.102 1.443.303.435.202.81.48 1.126.826.312.345.564.758.738 1.225.176.472.266.977.266 1.508v.05a4.45 4.45 0 0 1-.244 1.476 3.74 3.74 0 0 1-.704 1.212c-.308.342-.68.616-1.108.821a3.419 3.419 0 0 1-1.469.306m5.011-8.83a6.738 6.738 0 0 0-2.217-1.5A7.083 7.083 0 0 0 102.01 5c-1.004 0-1.942.19-2.792.56a6.94 6.94 0 0 0-2.213 1.511 7.075 7.075 0 0 0-1.468 2.22 6.965 6.965 0 0 0-.537 2.72v.05c0 .944.177 1.849.52 2.693.349.843.84 1.59 1.463 2.212a6.937 6.937 0 0 0 2.214 1.49c.848.359 1.78.544 2.765.544 1.003 0 1.95-.19 2.81-.561a6.932 6.932 0 0 0 2.225-1.508 7.081 7.081 0 0 0 1.468-2.224c.358-.843.535-1.75.535-2.695v-.05c0-.96-.177-1.87-.522-2.707a6.932 6.932 0 0 0-1.457-2.207m22.714-.65C128.895 5.47 127.713 5 126.232 5c-1.014 0-1.902.229-2.649.68a6.63 6.63 0 0 0-1.647 1.432 4.385 4.385 0 0 0-1.351-1.423c-.672-.457-1.51-.688-2.476-.688a4.55 4.55 0 0 0-1.395.203c-.418.132-.803.32-1.133.552a5.1 5.1 0 0 0-.881.77c-.068.072-.128.145-.19.22V5.273H111V19h3.51v-7.67c0-.947.226-1.694.677-2.217.447-.52 1.024-.771 1.763-.771.737 0 1.292.235 1.687.716.406.49.61 1.222.61 2.174v7.766h3.51v-7.69c0-.98.228-1.73.681-2.225.455-.5 1.03-.741 1.76-.741.737 0 1.293.235 1.686.716.402.49.61 1.232.61 2.2v7.74H131v-8.681c-.001-1.679-.424-2.995-1.265-3.92" fill="#E37F26"/><mask id="b" fill="#fff"><use xlink:href="#a"/></mask><path fill="#FEFEFE" mask="url(#b)" d="M18 19h3V5h-3zm1.498-19A1.998 1.998 0 0 0 17.5 2a2 2 0 1 0 1.998-2z"/><path d="M79.5 17.001A1.998 1.998 0 0 0 77.503 15a2.002 2.002 0 0 0-2.003 2.001c0 1.1.898 1.999 2.003 1.999a2.001 2.001 0 0 0 1.997-1.999" fill="#E37F26" mask="url(#b)"/><path d="M12.341 13.358c0 .788-.29 1.362-.882 1.754-.605.402-1.464.606-2.538.606H3.659v-4.723H8.68c1.251 0 2.192.21 2.79.62.582.397.87.951.87 1.69v.053zM3.66 7.73V3.286H8.2c1.015 0 1.8.194 2.326.584.515.382.764.901.764 1.59v.052c0 .79-.284 1.358-.874 1.74-.604.398-1.432.595-2.462.595H3.659V7.73zm11.26 2.864a5.23 5.23 0 0 0-1.217-.956 9.674 9.674 0 0 0-.943-.46l-.206-.084.186-.12c.158-.1.316-.212.471-.331a4.37 4.37 0 0 0 .893-.905c.251-.34.458-.743.614-1.192.157-.453.237-.976.237-1.566v-.05c0-1.272-.444-2.357-1.32-3.222C12.497.574 10.803 0 8.603 0H0v19h8.869c1.05 0 2.02-.114 2.885-.34.878-.227 1.638-.56 2.26-.998a4.676 4.676 0 0 0 1.469-1.665c.339-.662.517-1.436.517-2.297v-.052c0-.657-.094-1.242-.282-1.74a3.87 3.87 0 0 0-.8-1.314zm44.828-5.588c-1.189-.052-2.192.244-2.982.887a5.595 5.595 0 0 0-1.261 1.441V5.256H52V19h3.505v-5.3c0-.832.099-1.567.3-2.195.196-.611.474-1.125.83-1.526a3.46 3.46 0 0 1 1.277-.901 4.368 4.368 0 0 1 1.657-.304H60V5.017l-.252-.011z" fill="#FEFEFE" mask="url(#b)"/></g><path d="M75.157 36.662h-2.212L71.847 43h-.913l1.098-6.338H69.82l.137-.771h5.337l-.137.771zm2.85 1.86l-.416-.043c-.566 0-1.012.255-1.338.766L75.603 43h-.883l.918-5.283.855-.005-.132.615c.374-.491.815-.73 1.323-.718.107 0 .247.025.42.074l-.098.84zm3.498 3.956c-.414.426-.94.633-1.577.62-.505-.013-.879-.194-1.121-.542-.243-.349-.333-.824-.271-1.426l.566-3.413h.884l-.571 3.428a2.28 2.28 0 0 0-.01.42c.016.234.086.418.21.551.124.134.296.205.518.215.631.02 1.12-.236 1.464-.767l.665-3.847h.883L82.227 43h-.835l.113-.522zm5.412-.909c.049-.364-.151-.621-.6-.771l-.918-.269c-.775-.267-1.15-.71-1.123-1.328.022-.465.235-.847.637-1.145.402-.298.875-.443 1.418-.437.534.007.968.162 1.302.466.333.305.493.701.48 1.19l-.878-.005a.824.824 0 0 0-.25-.645c-.172-.166-.401-.252-.688-.259a1.287 1.287 0 0 0-.79.225.822.822 0 0 0-.357.576c-.043.306.144.529.561.669l.444.122c.606.156 1.036.36 1.29.61.253.251.37.562.351.933a1.49 1.49 0 0 1-.322.86c-.195.243-.456.43-.781.558a2.613 2.613 0 0 1-1.04.179c-.56-.007-1.023-.17-1.387-.491-.365-.32-.54-.733-.528-1.238l.884.005c0 .296.095.534.283.713.19.179.448.268.777.268.322.007.6-.06.835-.202.234-.142.368-.336.4-.584zm4.212-5.132l-.225 1.28h.962l-.122.698h-.957l-.552 3.286c-.01.085-.011.163-.005.235.023.253.161.38.415.38.108 0 .25-.016.43-.048l-.069.737a2.404 2.404 0 0 1-.644.088c-.352-.007-.615-.136-.791-.388-.176-.253-.244-.592-.205-1.018l.537-3.272h-.933l.122-.698h.933l.225-1.28h.879zm3.268 6.66c-.657-.012-1.171-.255-1.543-.727-.37-.472-.527-1.076-.468-1.811l.024-.21c.055-.524.21-1.003.466-1.436.256-.433.568-.76.936-.979.367-.22.764-.325 1.19-.315.545.013.971.194 1.28.542.31.348.479.82.508 1.416.01.212.003.423-.02.635l-.053.405h-3.452c-.059.479.02.886.236 1.22.217.336.54.51.97.523.52.013 1.002-.221 1.445-.703l.508.43a2.324 2.324 0 0 1-.857.75c-.35.18-.74.267-1.17.26zm.562-4.74a1.291 1.291 0 0 0-.955.37c-.271.258-.487.64-.647 1.148l2.569.005.02-.078c.051-.41-.015-.751-.198-1.023a.93.93 0 0 0-.789-.423zm2.693 1.992a4.11 4.11 0 0 1 .444-1.455c.231-.433.516-.757.855-.972a1.954 1.954 0 0 1 1.118-.308c.589.013 1.041.228 1.357.645l.508-2.759h.884l-1.3 7.5h-.805l.093-.566a1.948 1.948 0 0 1-1.543.664c-.488-.013-.877-.205-1.167-.574-.29-.37-.446-.865-.469-1.487a4.748 4.748 0 0 1 .025-.688zm.85.507c-.01.466.073.827.248 1.084.176.258.433.39.772.396.51.023.965-.234 1.362-.772l.42-2.441c-.195-.482-.55-.73-1.064-.742a1.339 1.339 0 0 0-.92.315c-.266.22-.468.527-.606.923a3.81 3.81 0 0 0-.213 1.237zm11.86-.473a4.116 4.116 0 0 1-.445 1.46c-.23.433-.51.753-.84.962a1.911 1.911 0 0 1-1.093.298c-.638-.013-1.112-.253-1.421-.718l-.181.615h-.815l1.303-7.5h.884l-.532 2.803c.423-.469.937-.697 1.543-.684.508.013.903.2 1.186.562.284.361.433.859.45 1.494a4.6 4.6 0 0 1-.03.605l-.01.103zm-.84-.513c.01-.475-.07-.839-.24-1.091-.169-.252-.428-.385-.776-.398-.55-.013-1.016.264-1.396.83l-.396 2.3c.195.537.562.812 1.099.825.345.013.647-.09.905-.308.26-.218.455-.523.589-.915.133-.392.205-.807.215-1.243zM113 41.667l1.88-3.95h.976l-3.135 6.162c-.436.856-.996 1.28-1.68 1.27a2.878 2.878 0 0 1-.532-.088l.078-.733.23.025c.28.013.522-.05.725-.188.204-.139.383-.363.54-.672l.317-.605-.913-5.171h.923l.59 3.95zm7.729-5.23l-.225 1.28h.962l-.122.698h-.957l-.552 3.286c-.01.085-.011.163-.005.235.023.253.162.38.415.38.108 0 .251-.016.43-.048l-.068.737a2.404 2.404 0 0 1-.645.088c-.351-.007-.615-.136-.79-.388-.177-.253-.245-.592-.206-1.018l.537-3.272h-.932l.122-.698h.932l.225-1.28h.879zm4.27 2.085l-.415-.043c-.567 0-1.013.255-1.338.766l-.65 3.755h-.883l.918-5.283.854-.005-.132.615c.375-.491.816-.73 1.324-.718.107 0 .247.025.42.074l-.098.84zM128.18 43a1.183 1.183 0 0 1-.033-.278l.014-.279c-.485.45-.999.668-1.543.655-.465-.007-.844-.154-1.135-.442-.291-.288-.424-.649-.398-1.082.033-.56.278-.997.735-1.31.457-.315 1.059-.472 1.804-.472l.923.005.059-.42c.032-.316-.029-.566-.183-.75-.155-.183-.387-.279-.696-.285a1.363 1.363 0 0 0-.803.222.946.946 0 0 0-.428.613l-.888.005c.029-.31.15-.584.36-.823a2.11 2.11 0 0 1 .816-.557 2.634 2.634 0 0 1 1.03-.188c.55.013.979.18 1.285.5.306.321.434.747.386 1.278l-.43 2.617-.025.376c-.006.179.013.356.06.532l-.01.083h-.9zm-1.386-.684c.283.007.551-.06.803-.202.253-.142.47-.338.652-.589l.19-1.088-.668-.005c-.557 0-.983.088-1.28.263-.296.176-.463.425-.503.747-.029.248.029.454.174.618.145.164.355.25.632.256zm3.835-1.967a4.11 4.11 0 0 1 .445-1.455c.23-.433.516-.757.854-.972a1.954 1.954 0 0 1 1.118-.308c.59.013 1.042.228 1.358.645l.508-2.759h.884l-1.3 7.5h-.805l.093-.566a1.948 1.948 0 0 1-1.543.664c-.488-.013-.877-.205-1.167-.574-.29-.37-.446-.865-.469-1.487a4.748 4.748 0 0 1 .024-.688zm.85.507c-.01.466.073.827.25 1.084.175.258.432.39.77.396.512.023.966-.234 1.363-.772l.42-2.441c-.195-.482-.55-.73-1.065-.742a1.339 1.339 0 0 0-.92.315c-.265.22-.467.527-.605.923a3.81 3.81 0 0 0-.213 1.237zm6.8 2.242c-.658-.013-1.173-.256-1.544-.728-.37-.472-.527-1.076-.468-1.811l.024-.21c.055-.524.21-1.003.466-1.436.256-.433.568-.76.935-.979.368-.22.765-.325 1.192-.315.543.013.97.194 1.28.542.308.348.478.82.507 1.416.01.212.003.423-.02.635l-.053.405h-3.452c-.06.479.02.886.236 1.22.217.336.54.51.97.523.52.013 1.002-.221 1.445-.703l.508.43a2.324 2.324 0 0 1-.857.75c-.35.18-.74.267-1.17.26zm.56-4.742a1.291 1.291 0 0 0-.954.372c-.272.257-.487.64-.647 1.147l2.569.005.02-.078c.051-.41-.015-.751-.199-1.023a.93.93 0 0 0-.788-.423zm5.726.166l-.415-.043c-.567 0-1.013.255-1.338.766l-.65 3.755h-.883l.918-5.283.854-.005-.132.615c.375-.491.816-.73 1.324-.718.107 0 .247.025.42.074l-.098.84zm3.415 3.047c.05-.364-.151-.621-.6-.771l-.918-.269c-.775-.267-1.15-.71-1.123-1.328.022-.465.235-.847.637-1.145.402-.298.875-.443 1.418-.437.534.007.968.162 1.302.466.333.305.494.701.48 1.19l-.878-.005a.824.824 0 0 0-.25-.645c-.172-.166-.401-.252-.688-.259a1.287 1.287 0 0 0-.79.225.822.822 0 0 0-.357.576c-.043.306.145.529.561.669l.445.122c.605.156 1.035.36 1.289.61.254.251.37.562.351.933a1.49 1.49 0 0 1-.322.86c-.195.243-.456.43-.781.558a2.613 2.613 0 0 1-1.04.179c-.56-.007-1.023-.17-1.387-.491-.365-.32-.54-.733-.527-1.238l.883.005c0 .296.095.534.284.713.188.179.447.268.776.268.322.007.6-.06.835-.202.234-.142.368-.336.4-.584zm7.7 0c.05-.364-.151-.621-.6-.771l-.918-.269c-.775-.267-1.15-.71-1.123-1.328.022-.465.235-.847.637-1.145.402-.298.875-.443 1.418-.437.534.007.968.162 1.302.466.333.305.494.701.48 1.19l-.878-.005a.824.824 0 0 0-.25-.645c-.172-.166-.401-.252-.688-.259a1.287 1.287 0 0 0-.79.225.822.822 0 0 0-.357.576c-.043.306.145.529.561.669l.445.122c.605.156 1.035.36 1.289.61.254.251.37.562.351.933a1.49 1.49 0 0 1-.322.86c-.195.243-.456.43-.781.558a2.613 2.613 0 0 1-1.04.179c-.56-.007-1.023-.17-1.387-.491-.365-.32-.54-.733-.527-1.238l.883.005c0 .296.095.534.284.713.188.179.447.268.776.268.322.007.6-.06.835-.202.234-.142.368-.336.4-.584zM158.515 43h-.88l.919-5.283h.879L158.515 43zm.727-7.212a.484.484 0 0 1 .523.513.53.53 0 0 1-.15.376.535.535 0 0 1-.373.156.487.487 0 0 1-.376-.132.478.478 0 0 1-.141-.37.554.554 0 0 1 .146-.382.517.517 0 0 1 .371-.16zm2.57 1.924l-.126.669c.475-.521 1.016-.775 1.621-.762.498.013.866.186 1.104.518.237.332.325.799.263 1.401L164.098 43h-.884l.581-3.477c.02-.16.021-.307.005-.444-.055-.456-.324-.688-.805-.698-.531-.01-.997.273-1.397.85L160.944 43h-.884l.918-5.283.835-.005zm5.98 4.653c.316.007.6-.085.854-.276.254-.19.42-.44.498-.75l.835-.004a1.884 1.884 0 0 1-.398.908 2.22 2.22 0 0 1-.818.64 2.22 2.22 0 0 1-1.01.215c-.44-.007-.812-.122-1.116-.345a1.927 1.927 0 0 1-.671-.932c-.144-.399-.192-.847-.147-1.345l.025-.245c.061-.507.21-.961.444-1.362.234-.4.54-.712.918-.935a2.28 2.28 0 0 1 1.25-.315c.553.013.996.199 1.328.557.332.358.498.812.498 1.362l-.825-.005c-.007-.345-.103-.624-.288-.837-.186-.213-.436-.327-.752-.34a1.41 1.41 0 0 0-1.145.513c-.305.352-.494.843-.57 1.475l-.014.127a4.17 4.17 0 0 0-.01.644c.023.381.13.682.323.904.192.22.456.336.79.346zm5.28.733c-.657-.013-1.171-.256-1.543-.728-.37-.472-.527-1.076-.468-1.811l.024-.21c.055-.524.21-1.003.466-1.436.256-.433.568-.76.936-.979.367-.22.764-.325 1.19-.315.545.013.971.194 1.28.542.31.348.479.82.508 1.416.01.212.003.423-.02.635l-.053.405h-3.452c-.059.479.02.886.236 1.22.217.336.54.51.97.523.52.013 1.002-.221 1.445-.703l.508.43a2.324 2.324 0 0 1-.857.75c-.35.18-.74.267-1.17.26zm.562-4.742a1.291 1.291 0 0 0-.955.372c-.271.257-.487.64-.647 1.147l2.569.005.02-.078c.051-.41-.015-.751-.198-1.023a.93.93 0 0 0-.789-.423zM183.111 43h-4.526l.107-.688 2.622-2.55.479-.473c.55-.55.854-1.058.913-1.523.042-.358-.028-.65-.21-.877-.182-.226-.44-.346-.771-.359-.427-.013-.783.112-1.07.374-.286.262-.46.62-.522 1.076l-.874.005c.042-.436.176-.822.403-1.16.226-.336.524-.595.893-.776.37-.18.77-.266 1.204-.256.589.013 1.057.191 1.404.535.346.343.495.788.446 1.335-.055.625-.415 1.283-1.079 1.973l-.449.454-2.285 2.173h3.433l-.118.737zm3.264.098c-.599-.013-1.048-.226-1.347-.638-.3-.411-.436-1.005-.41-1.78.006-.24.024-.478.053-.712l.176-1.187c.156-1.012.454-1.767.894-2.265.44-.498 1.019-.74 1.738-.723.605.013 1.057.22 1.355.623.298.402.435.985.412 1.75a8.8 8.8 0 0 1-.058.718l-.171 1.147c-.173 1.071-.477 1.854-.913 2.349-.436.495-1.012.734-1.729.718zm1.958-4.375c.046-.394.067-.7.064-.918-.016-.827-.337-1.252-.962-1.275a1.283 1.283 0 0 0-1.106.506c-.282.353-.478.907-.588 1.662l-.21 1.416a7.203 7.203 0 0 0-.064.923c.016.863.335 1.305.957 1.328.433.02.79-.14 1.072-.478.282-.339.483-.876.603-1.612l.234-1.552zm3.64 4.375c-.599-.013-1.048-.226-1.347-.638-.3-.411-.436-1.005-.41-1.78.006-.24.024-.478.053-.712l.176-1.187c.156-1.012.454-1.767.894-2.265.44-.498 1.019-.74 1.738-.723.605.013 1.057.22 1.355.623.298.402.435.985.413 1.75-.01.244-.03.483-.06.718l-.17 1.147c-.172 1.071-.477 1.854-.913 2.349-.436.495-1.012.734-1.729.718zm1.958-4.375c.046-.394.067-.7.064-.918-.016-.827-.337-1.252-.962-1.275a1.283 1.283 0 0 0-1.106.506c-.282.353-.478.907-.588 1.662l-.21 1.416a7.203 7.203 0 0 0-.064.923c.017.863.336 1.305.957 1.328.433.02.79-.14 1.072-.478.282-.339.483-.876.603-1.612l.234-1.552zm3.64 4.375c-.598-.013-1.048-.226-1.347-.638-.3-.411-.436-1.005-.41-1.78.006-.24.024-.478.053-.712l.176-1.187c.156-1.012.454-1.767.894-2.265.44-.498 1.019-.74 1.738-.723.605.013 1.057.22 1.355.623.298.402.435.985.413 1.75-.01.244-.03.483-.059.718l-.17 1.147c-.173 1.071-.478 1.854-.914 2.349-.436.495-1.012.734-1.729.718zm1.958-4.375c.046-.394.067-.7.064-.918-.016-.827-.337-1.252-.962-1.275a1.283 1.283 0 0 0-1.106.506c-.281.353-.478.907-.588 1.662l-.21 1.416a7.203 7.203 0 0 0-.064.923c.017.863.336 1.305.957 1.328.433.02.79-.14 1.072-.478.282-.339.483-.876.603-1.612l.234-1.552z" fill="#FFF"/></g></svg>